<svg xmlns="http://www.w3.org/2000/svg" version="1.1" xmlns:xlink="http://www.w3.org/1999/xlink" viewBox="0 0 200 200" width="200" height="200"><rect width="200" height="200" fill="url('#gradient')"></rect><defs><linearGradient id="gradient" gradientTransform="rotate(38 0.5 0.5)"><stop offset="0%" stop-color="#000000"></stop><stop offset="100%" stop-color="#000000"></stop></linearGradient></defs><g><g fill="#ffffff" transform="matrix(3.9208679004467135,0,0,3.9208679004467135,5.758854172757722,123.07309453960582)" stroke="#222f3e" stroke-width="0.2"><path d="M1.08-4.13L6.40-5.98L1.08-7.78L1.08-10.77L9.67-7.26L9.67-4.66L1.08-1.14L1.08-4.13ZM19.07 0L19.07 2.45L10.25 2.45L10.25 0L19.07 0ZM28.56-14.22L28.56-2.64L34.53-2.64L34.53 0L25.14 0L25.14-14.22L28.56-14.22ZM41.75 0L35.98 0L35.98-14.22L41.08-14.22Q43.83-14.22 45.26-13.21Q46.69-12.21 46.69-10.29L46.69-10.29Q46.69-9.19 46.18-8.41Q45.67-7.63 44.69-7.26L44.69-7.26Q45.80-6.96 46.40-6.16Q46.99-5.36 46.99-4.21L46.99-4.21Q46.99-2.12 45.67-1.07Q44.35-0.02 41.75 0L41.75 0ZM41.81-6.04L39.40-6.04L39.40-2.64L41.65-2.64Q42.58-2.64 43.08-3.06Q43.57-3.49 43.57-4.26L43.57-4.26Q43.57-6.04 41.81-6.04L41.81-6.04ZM39.40-11.57L39.40-8.29L41.19-8.29Q42.31-8.30 42.79-8.70Q43.27-9.10 43.27-9.88L43.27-9.88Q43.27-10.78 42.75-11.18Q42.24-11.57 41.08-11.57L41.08-11.57L39.40-11.57Z"></path></g></g></svg>